PathFileType	4	(X/Y/Z)	s08c0103.trc
DataRate	CameraRate	NumFrames	NumMarkers	Units	OrigDataRate	OrigDataStartFrame	OrigNumFrames
200	200	7	50	mm	200	1500	2000
Frame#	Time	racr			lacr			c7			jug			rlel			rdr			llel			ldr			s2			lic			ric			lasi			rasi			rpsi			lpsi			rgt			lgt			rth1			rth2			rth3			rth4			rlfc			rmfc			rsh1			rsh2			rsh3			rsh4			rlmal			rmmal			rcal			rtoe			rmt5			lth1			lth2			lth4			lth3			llfc			lmfc			llmal			lmmal			lcal			lmt5			lsh1			lsh2			lsh3			lsh4			ltoe			SBIKE			LBIKE			RBIKE			
		X1	Y1	Z1	X2	Y2	Z2	X3	Y3	Z3	X4	Y4	Z4	X5	Y5	Z5	X6	Y6	Z6	X7	Y7	Z7	X8	Y8	Z8	X9	Y9	Z9	X10	Y10	Z10	X11	Y11	Z11	X12	Y12	Z12	X13	Y13	Z13	X14	Y14	Z14	X15	Y15	Z15	X16	Y16	Z16	X17	Y17	Z17	X18	Y18	Z18	X19	Y19	Z19	X20	Y20	Z20	X21	Y21	Z21	X22	Y22	Z22	X23	Y23	Z23	X24	Y24	Z24	X25	Y25	Z25	X26	Y26	Z26	X27	Y27	Z27	X28	Y28	Z28	X29	Y29	Z29	X30	Y30	Z30	X31	Y31	Z31	X32	Y32	Z32	X33	Y33	Z33	X34	Y34	Z34	X35	Y35	Z35	X36	Y36	Z36	X37	Y37	Z37	X38	Y38	Z38	X39	Y39	Z39	X40	Y40	Z40	X41	Y41	Z41	X42	Y42	Z42	X43	Y43	Z43	X44	Y44	Z44	X45	Y45	Z45	X46	Y46	Z46	X47	Y47	Z47	X48	Y48	Z48	X49	Y49	Z49	X50	Y50	Z50	
1500	7.5000	544.520565	1368.004342	-58.881916	569.980401	1346.867342	-373.385117	528.310992	1427.742683	-226.247098	485.934142	1270.594258	-208.330926	555.038002	1101.912293	22.711958	778.251630	915.441279	-65.236123	604.560785	1095.902186	-494.487510	790.388661	886.447757	-429.184966	-30.072133	1223.269974	-270.884458	148.839035	1203.251741	-397.286701	111.086955	1243.705826	-91.249828	159.548120	1153.471938	-358.069924	159.464360	1185.989856	-97.567057	-2.144338	1268.699838	-220.617404	8.314663	1263.969479	-317.966718	46.069467	1134.941641	-60.960197	83.862217	1089.566022	-433.806210	179.748849	1016.724093	-48.366458	259.932155	978.707938	-48.729427	308.985028	907.127469	-55.551619	283.590040	1006.080573	-56.502814	394.408065	822.159623	-70.225201	379.627371	807.275254	-181.875684	344.909773	698.576548	-40.321827	354.494909	610.282360	-55.989021	318.795045	531.498851	-61.369669	383.255415	609.277247	-84.709512	293.411782	413.496770	-68.142788	305.824125	435.948630	-156.558355	217.835299	368.389303	-111.725600	512.950566	417.516280	-107.889343	431.059166	367.754088	-42.422598	167.735014	988.278072	-432.505893	237.689630	935.873252	-427.308652	264.201071	956.620648	-413.582546	272.519182	854.175749	-428.987272	318.168634	732.272640	-412.072282	312.042184	705.773858	-304.344690	55.039139	406.368690	-404.474255	92.481546	406.761456	-321.156652	-4.929904	424.194984	-360.232355	120.737843	250.321171	-419.967178	239.823719	628.749721	-434.088266	203.697526	552.962236	-414.091234	134.204339	499.309918	-414.107318	224.414830	541.979619	-382.135978	204.819805	224.858049	-352.362501	-198.077390	922.319156	-228.494637	-8.229638	79.968567	-426.751604	-7.229791	80.419400	-28.461240	
1501	7.5050	545.328985	1366.499365	-59.002742	570.056381	1345.816843	-374.142255	528.969577	1426.552358	-227.088985	487.120042	1269.196975	-209.023676	554.710102	1099.854379	22.611990	778.424308	913.694482	-66.313198	604.698214	1094.897560	-495.138992	790.684108	886.471017	-429.425235	-29.767855	1221.632381	-270.233863	148.701693	1202.468306	-396.134277	112.156375	1240.519876	-89.823849	159.704593	1152.803577	-356.720334	161.059811	1182.995275	-96.192479	-0.954983	1266.505742	-222.639562	8.481493	1262.275169	-316.688295	45.833298	1131.308237	-60.320238	85.957450	1088.915328	-433.627176	177.911911	1010.706774	-47.719134	257.416303	971.157921	-48.134406	305.118204	898.751988	-55.099650	281.541731	998.282266	-55.658875	389.900671	812.501184	-69.812044	374.736419	797.359725	-181.774849	343.090628	688.075965	-39.875136	353.899912	599.928653	-55.515794	319.241287	520.624296	-60.722140	382.201886	599.374296	-84.794705	295.600949	401.943555	-67.414765	307.598929	424.530560	-155.855947	220.269972	356.521923	-111.042601	515.199330	407.123809	-107.984529	433.730422	356.847265	-42.289542	171.029122	989.563084	-432.462169	241.950981	938.469616	-426.656885	267.875734	959.555819	-412.137487	278.552144	857.466120	-429.053830	325.410037	736.924172	-411.957965	320.345038	709.999085	-305.696689	55.441291	417.124157	-404.201617	92.614887	416.942257	-321.119667	-4.552043	436.298894	-360.240421	118.282835	260.407988	-419.940591	245.509837	634.745727	-433.912781	208.685045	561.867897	-416.763204	136.818603	508.007947	-414.037330	227.812257	548.601642	-381.722090	202.001650	233.642355	-352.344445	-198.176401	922.417185	-227.972857	-8.204693	79.985181	-426.728605	-7.196301	80.414255	-28.421734	
1502	7.5100	545.996912	1365.274981	-59.222796	569.938975	1344.786423	-374.922913	529.311309	1425.416123	-227.618306	488.192491	1268.027414	-209.832906	554.652493	1097.983829	22.681194	778.429807	912.666994	-66.689147	604.407424	1094.127682	-496.085150	790.804456	886.553958	-429.744769	-29.313227	1219.756828	-269.402340	148.524840	1201.817011	-394.818878	113.330885	1237.509832	-88.444240	159.893035	1152.249767	-355.473349	162.589233	1179.915960	-94.897757	-0.065852	1263.861665	-220.606770	8.687539	1260.650264	-315.090052	45.758326	1127.547352	-59.700777	88.175416	1088.532048	-433.406776	176.065619	1004.442521	-47.093383	254.790589	963.315103	-47.432534	301.267345	890.015914	-54.561859	279.475345	990.105415	-54.714361	385.371985	802.530067	-69.460458	370.013991	787.881757	-180.857519	341.042566	677.531633	-39.512351	352.880692	589.451715	-55.377036	319.555514	509.828246	-60.018334	380.875121	589.549145	-85.076745	297.232204	390.420008	-66.732856	309.131426	413.943571	-154.749766	222.144535	344.710453	-110.503236	517.008443	396.419263	-107.955647	435.731506	345.739171	-42.281848	174.351022	990.911437	-432.466631	246.190324	941.370350	-426.379902	271.389900	962.705940	-411.192198	284.637222	861.080455	-429.347304	332.811845	741.795713	-411.792108	328.491700	714.581042	-306.724700	56.172158	428.260788	-404.169949	93.004843	427.217905	-320.822555	-3.713993	448.256944	-360.215566	116.556611	270.662666	-419.892861	251.475219	641.048497	-433.651680	212.795823	568.975383	-416.381852	139.757366	516.864409	-413.778597	231.590836	555.571662	-381.327004	199.794731	242.777068	-352.390014	-198.098117	922.326670	-227.918368	-8.221507	79.987561	-426.706357	-7.185786	80.373378	-28.431249	
1503	7.5150	546.736684	1364.168573	-59.264764	569.704536	1343.896477	-375.862794	529.465549	1424.650434	-228.046264	489.208939	1267.176716	-210.686985	554.933954	1096.373582	23.052195	778.303365	911.525928	-66.986404	603.838645	1093.590875	-497.181887	790.696117	886.636201	-430.013225	-28.959249	1217.729939	-268.162472	148.463160	1201.353439	-393.599432	114.607836	1234.232679	-86.818190	160.025754	1151.679629	-354.051473	164.036175	1176.771111	-93.694240	0.860398	1261.228154	-218.456452	8.830015	1258.976668	-313.349916	45.805253	1123.730130	-58.980494	90.377253	1088.251736	-433.038508	174.196529	997.940379	-46.417714	252.101396	955.310907	-46.785218	297.487480	881.110059	-54.659290	277.294002	981.596321	-53.656941	380.684969	792.408428	-68.993351	364.818302	777.651089	-179.623307	338.169684	666.905595	-39.193598	351.307092	579.132561	-55.120599	319.078666	498.866625	-59.837048	379.343695	579.840818	-84.604137	298.256219	379.051176	-66.487496	309.715583	402.382951	-154.836780	223.444629	333.362661	-110.205561	518.231599	385.439888	-107.847405	436.974746	334.509873	-42.218350	177.637408	992.271054	-432.443623	250.732203	944.594948	-426.684585	274.887896	965.671965	-409.362230	290.732482	864.772043	-429.378521	340.160173	747.128851	-411.518902	336.471280	719.507360	-307.457228	57.256114	439.468018	-404.171920	93.907604	437.700790	-320.806324	-2.437109	460.231978	-360.196472	115.387457	281.154675	-420.226596	257.868865	648.284207	-434.368012	217.202903	576.474563	-415.949754	143.106690	525.967384	-413.528657	235.636917	562.836658	-380.878492	198.279419	252.052080	-352.473202	-198.060988	922.460753	-227.663320	-8.228161	79.969877	-426.731521	-7.193742	80.246593	-28.510950	
1504	7.5200	547.462812	1363.288470	-59.261660	569.282798	1343.047681	-376.832060	529.355590	1424.169456	-228.406663	490.050702	1266.652253	-211.719530	555.324873	1095.096798	23.341251	778.008033	910.474669	-67.257162	603.005760	1093.187170	-498.350443	790.448586	886.751759	-430.368615	-28.517471	1215.585188	-266.573256	148.389092	1200.866329	-391.988379	115.986228	1231.072391	-84.984448	160.210113	1151.187964	-352.398833	165.384202	1173.580046	-92.593255	1.697335	1258.616276	-216.318344	9.032038	1257.233953	-311.395516	45.973140	1119.782750	-58.139861	92.388715	1088.242643	-432.548417	172.402405	991.210712	-45.856787	249.352681	947.057725	-46.109749	293.020969	872.039244	-54.171236	275.171376	972.848821	-52.553161	375.758042	782.251602	-69.082300	359.642683	767.492984	-179.237592	334.266744	656.239332	-38.673030	349.379329	568.650541	-54.486259	317.885019	487.994690	-59.722622	376.554408	569.790532	-84.712189	298.525907	367.765869	-66.355103	309.995846	391.293393	-154.796525	223.948156	322.062987	-110.395029	518.801592	374.289028	-107.732217	437.513612	323.369005	-42.210372	180.792430	993.741626	-432.514797	254.858322	947.681334	-426.192002	278.286054	969.124725	-408.327908	296.768716	868.769466	-429.271392	347.574775	752.640156	-411.120664	344.272829	724.765669	-307.922685	58.881745	450.577477	-404.048486	95.294555	448.223242	-321.483929	-0.605863	471.980944	-360.137697	114.884464	291.660490	-420.453892	264.042046	655.242038	-433.955142	221.808859	584.287936	-415.605337	146.678925	535.289411	-413.224788	239.878020	570.027074	-380.242551	197.495408	261.414359	-352.525126	-198.109541	922.229310	-228.300491	-8.213143	79.860630	-426.790996	-7.210712	80.337130	-28.425469	
1505	7.5250	548.037779	1362.306005	-59.344867	568.510258	1342.613784	-377.912692	529.009759	1423.907387	-228.591175	490.731051	1265.923786	-212.475378	556.164999	1094.174232	24.295056	777.677576	909.067304	-67.679113	602.125979	1093.035303	-499.580463	790.094963	886.873349	-430.670839	-27.989042	1213.468371	-264.628816	148.111440	1200.559654	-390.360031	117.441402	1227.762633	-83.080101	160.514030	1150.916486	-350.827354	166.616864	1170.362331	-91.606162	2.871257	1255.720699	-214.118899	9.122656	1255.551056	-308.989660	46.236148	1115.629473	-57.201301	94.304633	1088.462491	-431.879932	170.608040	984.434336	-45.220411	246.730464	938.707345	-45.422696	288.311339	862.931588	-54.317693	273.042098	963.974624	-51.385674	370.745336	772.061353	-69.036025	353.365467	755.434713	-177.913555	329.981652	645.453635	-38.213181	346.314241	558.132665	-54.127706	316.080754	476.998432	-59.661946	373.719403	559.665427	-84.126789	298.208004	356.682349	-66.327084	309.572780	380.179740	-154.859390	223.910222	310.975429	-110.725796	518.775391	363.174519	-107.628240	437.401050	312.256786	-42.362746	184.185114	995.904285	-433.580001	258.851055	950.976533	-425.729056	281.620797	972.872603	-407.431926	302.642548	873.199872	-428.884374	354.989045	758.386026	-410.853704	351.885460	730.343417	-308.149516	61.111059	461.562666	-404.069117	98.601523	458.522013	-320.966427	1.687980	483.868415	-360.275131	115.111338	302.071969	-420.569153	270.260286	662.379239	-433.536085	226.534746	592.233299	-415.194525	150.543384	544.735966	-412.949877	244.320061	577.604157	-379.846672	197.342722	270.936291	-352.685723	-198.035040	922.109224	-228.584323	-8.237127	79.819962	-426.812874	-7.214725	80.302525	-28.440770	
1506	7.5300	548.658522	1361.345697	-59.544610	567.466783	1342.323518	-379.216669	528.404907	1423.794147	-228.788167	491.348918	1265.778797	-213.497849	557.191061	1093.932392	25.459014	777.572026	907.765017	-68.049862	601.460999	1093.009866	-500.690462	789.740000	887.076730	-430.995875	-27.156994	1211.219836	-262.529510	147.988822	1200.178426	-388.618637	118.953771	1224.237228	-80.920316	160.830503	1150.725811	-349.085823	167.717710	1167.136919	-90.744283	3.424367	1253.144247	-212.910491	9.137554	1253.894085	-306.126893	46.649951	1111.339003	-56.152026	95.976774	1088.934175	-431.086179	168.995524	977.667349	-44.561916	244.034286	930.268137	-44.582771	284.732487	853.816374	-54.797151	271.016243	955.005905	-50.332000	365.447899	761.838515	-68.740283	348.813588	746.163845	-177.562903	325.447280	634.539406	-37.798976	342.881060	547.597871	-53.856020	313.843592	465.911932	-59.648054	370.595204	549.307817	-83.505444	297.478793	345.750078	-66.139122	308.291606	369.524819	-154.896206	223.793716	299.743820	-111.252146	518.150859	351.879852	-107.770637	436.821990	301.063446	-42.461380	186.544455	997.070754	-432.643597	262.695626	954.522485	-425.372331	284.833431	977.076730	-406.993297	308.356255	877.963530	-428.396362	372.006188	770.774798	-422.130820	359.298222	736.228296	-308.166163	63.795200	472.499875	-404.063505	101.100179	468.878020	-320.979387	4.311505	495.345694	-360.281141	116.089579	312.595914	-420.644465	276.468732	669.726710	-432.774264	230.648502	598.828164	-412.642112	154.528359	554.332909	-412.651880	249.114408	585.342236	-379.747920	197.925515	280.645145	-352.838450	-198.028055	922.196536	-228.479118	-8.244021	79.770921	-426.831165	-7.228333	80.283166	-28.451958	
